<svg xmlns="http://www.w3.org/2000/svg" width="1024" height="1024"><path style="fill:#e2302f;stroke:none" d="M0 0L0 1024L1024 1024L1024 0L0 0z"/><path style="fill:#cc514f;stroke:none" d="M526 159L525 159L521 157L522 159L521 159L516 158L489 170L483 176L484 178L481 177L480 181L472 184L472 188C466.96 184.902 463.118 190.073 463 195L442.961 216.076L418 233L419 231L418 231L416 236L421 233L418 237L419 240L416 239L413 242L412 243C410.773 255.292 389.517 260.472 386 273L383 273L384 276L380 276C379.318 282.475 375.289 285.178 369 285L367 286L367 288L365 287L366 290L365 292C354.007 297.14 350.115 308.958 343.127 317.896C338.179 324.225 330.761 328.485 325 334C325.517 336.587 323.537 340.634 321 340L321 343L319 342L313 347L314 345L311 348L309 346L304 349L304 352C305.456 355.454 304.564 357.401 302 360L303 362L300 363L301 361L300 361L298 371C294.331 371.778 294.351 374.583 294 378L292 377C288.382 383.95 281.03 397.827 273 400L264 418L257 428L255 427L252 432L249 450L247 450L248 452L246 452L247 454L244 457L242 455L239 458C239.701 462.206 236.174 476.044 232 475L234 479L233 482L230 480L232 482L232 483C228.246 487.883 228.315 497.022 227.924 503C227.058 516.27 226.373 527.566 228.015 540.925C228.788 547.213 231.525 561.026 227 566L228 573L230 573L233 578C233.187 580.604 233.587 581.222 236 580C236.543 583.258 240.004 588.001 236 587C238.413 592.478 238.776 598.561 241.26 604C245.485 613.25 251.163 619.181 251 630L255 629L258 634L254 633L259 636L258 640L259 640L260 636L262 635L265 638L268 637L267 639L269 640L271 639L271 641L272 641L277 639L276 636C278.924 635.415 279.487 632.309 280 630C280.443 628.008 277.551 621.795 279 616C280.427 610.29 282.66 603.064 283 600C283.47 595.766 282.273 589.068 286 590L286 580L286 579L284 579L284 578C287.686 575.997 286.325 564.242 287.25 560C290.716 544.11 291.312 527.639 303 516L303 534L301 533C303.562 540.16 304.646 549.759 302.765 557.17C301.226 563.235 297.59 568.566 298 575L296 574L295 580L295 581C299.876 588.711 298.87 608.231 298 617L305 643L306 643L307 641L311 651L315 668L313 668L314 673L316 673C316.195 677.033 317.815 681.09 322 682L321 685L325 686L324 689L328 694L331 693L330 695L345 707L352 721L357 726L357 733L361 734L362 734L363 732L363 736L364 736L365 733L369 737L373 737L373 738L369 738L369 739L373 741L376 740L375 742L385 751L395 757L393 761L396 759L405 768C410.961 769.122 417.138 777.226 418 783L420 785L422 787L425 786L425 791L426 795L436 797C437.564 794.393 438.587 794.65 438 797L443 797C444.303 800.721 445.935 802.894 450 803L450 805L459 810L459 815L462 814L461 816L469 824L478 831L474 830C477.009 833.728 480.887 838.011 486 837L498 845L505 843L504 845L507 844L507 847L513 847L513 848L510 848L510 849L531 854L530 852L531 852L535 854L536 854L540 852L540 851L537 851L543 846L556 837L564 832C563.47 829.351 563.572 828.393 566 829L565 827L568 828L568 824L571 826L573 823L572 820L575 822L573 818L576 820L577 819L578 819L582 815C581.635 810.663 583.506 807.604 588 807L604 795L609 795L613 791C612.47 788.351 612.572 787.393 615 788L614 785L616 786C615.707 777.806 630.258 767.713 638 768L650 759L653 760L665 751C664.058 748.712 663.437 748.342 666 748L666 747L664 746L667 742L667 741L671 740L671 739L668 740L668 739L679 730L682 727L683 726L687 720L687 723L688 723L693 716L687 720L688 716L692 714L694 710L693 715L696 711L700 711L711 681L709 682L709 681L716 670L717 664L719 664L718 662L720 662C719.5 658.124 719.764 644.547 724 644L724 643L722 642C727.739 638.904 726.223 632.575 727 627L731 630L733 605L729 604L730 608L733 608L733 609L729 610L728 609L729 607L728 607L725 611L728 603L727 603L724 607L726 602C722.757 602 721.552 579.036 722 575L719 574L721 572L721 571L717 570L717 567L719 568L717 562L715 563C707.416 547.998 693.62 523.28 696 506L694 508L693 508L690 507L690 503L684 496C681.464 481.003 662.331 472.563 663 455L661 452L659 451L658 451L657 454C655.153 448.459 650.46 447.602 646 445C642.846 443.16 643.55 440.325 642 438C636.783 430.174 623.218 418.127 625 411L623 412L623 411L623 408L624 407L629 409L629 405L628 405L628 407L627 407L628 402L626 397L631 402L630 398L627 396L624 396L623 397L623 404L622 404L622 402L621 402L620 405L620 402L617 403L615 402L612 397L609 394C605.454 394 606.292 390.688 607 388L605 386L602 386L605 381C600.911 382.492 598.23 381.884 596 378L595 378L594 380L595 376L592 376L593 378L592 378L589 376L556 381L557 384C548.717 387.04 536.133 400.126 535 409L533 409L531 422L534 433L536 433L535 435L543 446L550 453L552 455L553 455L553 453L554 453L553 457L555 459L559 461L558 466L561 469C564.026 468.892 565.549 471.941 568 473.667C579.588 481.827 580.449 494.763 588.167 505C591.991 510.074 599.202 513.578 602.167 519C604.385 523.057 602.3 533.493 606 535L606 547L608 546L607 549L608 553L612 552L616 557L614 551L618 552L626 563L622 563L622 564L626 567L624 566L624 569L628 568L627 571L630 570L629 567C636.021 573.511 639.95 590.598 639.999 600C640.016 603.137 640.895 607.461 639 610L641 614L639 622L637 622L636 632C637.256 643.516 629.847 650.594 627 661C611.432 663.939 608.751 690.456 594 695C585.577 706.859 570.469 716.774 558 724L558 727L552 728C552.174 732.885 543.031 735.597 539 735C537.768 738.91 529.819 743.406 526 741L525 741L525 743L524 743L520 737L521 737L522 740L523 740L522 737L525 739L521 732L519 734L519 731L518 731L518 734L511 737L515 742L507 739L507 738L504 735L500 735L500 733C489.301 730.158 476.562 720.914 470 712L463 707L444 688L436 683L425 673C417.084 670.806 415.025 661.377 410 656L410 655L413 650L411 647L413 648L413 647L413 646L413 645L411 646L412 643L410 642L409 642L409 644L408 644L402 643L400 637L399 637C399.684 640.421 397.488 639.048 398 637C386.871 639.226 391.118 615.824 387 615L387 614L389 614L389 613L388 611L386 611L387 606L385 607L386 604L383 600L382 600L381 602L379 578L384 573L390 559L391 544L402 528C401.042 523.211 408.638 520.725 411 516C416.182 505.636 420.867 494.51 428 485C434.197 476.737 443.842 471.738 449 464C452.039 459.442 459.528 442.882 464 444C465.875 436.648 479.972 417.625 487.718 415.551C490.331 414.851 494.274 416.603 497 417L505 411L509 401L508 396L510 396L511 391L513 392L514 392L514 391L512 391L512 390L517 390L519 388L520 386L534 373C540.84 372.226 550.808 352.989 554 347L565 343L574 336.833L592.333 315L605 307L608 308L608 307L606 305L608 306L608 305L607 304L610 304L609 301L614 300L616 295L618 298L616 301L617 301L620 295L619 295L618 297L617 293L620 293L620 292L618 293L618 292L625 281L625 280L624 273L622 273C622.768 265.137 619.01 255.059 612 251L613 249L611 249C612.814 243.559 611.337 238.337 607 234C604.15 231.15 599.382 230.472 600 228L581.039 223.815L563 230L559 233L554 238L555 240L534 257L534 254L533 254L532 257L529 256L529 257L531 258L528 258L523 269C517.885 271.123 510.814 274.491 509 280L498 287L495 286L495 287L497 287L497 288L492 288L493 291L490 289L487 292L487 293L489 294L485 293L487 298L484 299L483 305L482 305L480 302L482 301L481 300L477 301L477 302L479 303C476.004 303.769 472.932 303.739 473 307L474 307L473 305L474 305L474 309L470 306L469 310L472 308L473 311L471 310C470.301 315.599 465.357 314.937 461 314L461 315L465 318L456 316L455 320L454 320L455 313L452 313L456 303L455 305L468 295L476 293L476 289L478 288L479 288L480 292L481 292L481 283L485 283L486 279L485 281L486 281L485 277L488 278L488 272L492 271L493 274L495 272L495 275L496 275L496 271C500.492 270.064 502.389 264.027 504 260C510.091 260.041 519.904 247.656 525 253L526 253C525.679 250.195 524.823 248.41 528 248L527 245L529 246L529 240L532 239L535 236L536 234L535 231L537 232L542 226L548 218L551 214L554 210L553 208C557.086 205.094 557.623 199.735 558 195L559 195L559 198L560 198L562 187L556 179L553 169L549 164L549 163L546 163L546 162L550 159L548 157C541.871 156.623 530.284 154.325 526 159z"/><path style="fill:#e2302f;stroke:none" d="M528.333 157.667L528.667 158.333L528.333 157.667M541 158L541 159L543 160L544 160L545 158L545 161L548 161L541 158M530 158L531 159L530 158z"/><path style="fill:#d97875;stroke:none" d="M271 633L271 636L272 636L272 632L274 633L273 631L276 632C275.014 622.854 277.76 613.185 277.985 604C278.713 574.292 280.992 544.246 291.105 516C297.481 498.192 311.228 483.839 320.598 467.826C322.946 463.813 323.303 458.984 325.688 455C349.646 414.984 380.994 380.564 411.671 345.911C415.623 341.447 417.377 335.553 421.329 331.089C436.031 314.482 453.632 299.811 469.715 284.675C480.575 274.454 487.649 262.194 502 256C501.837 251.449 509.853 246.493 512.667 243C526.536 225.783 565.388 211.869 550.833 185C548.526 180.74 544.904 175.759 541.833 172C519.505 144.667 489.466 181.727 473 197C463.647 205.675 452.332 214.07 444.333 224C428.229 243.992 404.886 259.119 387.167 278C328.087 340.953 261.124 407.354 237.333 493C229.497 521.212 232.017 553.558 242.667 580C245.814 587.814 245.686 595.141 249.833 603C254.578 611.989 255.907 635.78 271 633z"/><path style="fill:#e2302f;stroke:none" d="M503 163L504 164L503 163M506 163L505 165L506 163M501 165L502 166L501 165z"/><path style="fill:#cc514f;stroke:none" d="M490 168L491 169L490 168z"/><path style="fill:#edb1ac;stroke:none" d="M516.714 168.725C506.45 171.455 497.752 180.081 490 186.911C473.602 201.356 458.848 217.836 442.907 232.7C394.317 278.004 348.678 324.017 307.334 376C291.929 395.37 277.244 414.839 265.742 437C262.741 442.78 258.358 447.697 256.439 454C249.584 476.517 240.44 498.244 238.17 522C236.345 541.097 241.291 562.895 246.975 581C250.017 590.688 253.349 600.602 257.208 610C258.51 613.173 260.623 618.006 264.87 617.534C273.168 616.612 271.029 591.791 271.715 586C275.742 551.974 283.269 518.002 300.529 488C341.544 416.706 393.973 352.949 451.17 294.089C471.477 273.192 493.712 253.983 515.001 234.089C524.019 225.663 534.758 218.579 542.621 208.985C555.908 192.774 537.48 163.203 516.714 168.725z"/><path style="fill:#e2302f;stroke:none" d="M549 168L550 169L549 168M553 172L554 173L553 172M554 174L555 175L554 174z"/><path style="fill:#fcf1ee;stroke:none" d="M263 603C266.321 590.755 264.973 577.514 267.081 565C270.864 542.544 278.578 519.634 287.904 499C302.63 466.418 325.559 438.427 346.351 409.961C359.161 392.422 370.714 372.909 384.394 356.039C409.475 325.109 439.739 297.925 468 269.996C483.572 254.607 499.917 240.071 516 225.089C523.453 218.147 533.856 210.698 539.258 201.999C544.951 192.831 537.194 181.857 529 177.573C517.796 171.714 507.421 182.618 499 188.576C475.595 205.133 457.723 228.581 436 247.385C392.023 285.454 352.402 329.367 316.711 375C299.527 396.969 283.511 417.453 269.691 442C267.141 446.528 263.037 450.226 260.995 455C255.826 467.083 252.826 483.077 250.199 496C244.213 525.451 243.098 553.561 254.547 582C257.047 588.209 257.033 599.352 263 603z"/><path style="fill:#e2302f;stroke:none" d="M555 176L556 177L555 176z"/><path style="fill:#cc514f;stroke:none" d="M476 178L477 179L476 178z"/><path style="fill:#e2302f;stroke:none" d="M477 182L478 183L477 182M475 183L476 184L475 183M474 185L475 186L474 185z"/><path style="fill:#cc514f;stroke:none" d="M465 186L466 187L465 186z"/><path style="fill:#e2302f;stroke:none" d="M469 187L470 188L469 187M466 189L467 190L466 189M464 191L465 192L464 191M463 193L464 194L463 193M463 195L464 196L463 195M461 196L462 197L461 196z"/><path style="fill:#cc514f;stroke:none" d="M456 199L457 200L456 199z"/><path style="fill:#e2302f;stroke:none" d="M429 225L430 226L429 225M425 227L426 228L425 227z"/><path style="fill:#d97875;stroke:none" d="M578.714 227.863C567.456 231.582 559.17 242.954 550.831 250.676C530.944 269.091 511.151 287.788 491.999 307C455.909 343.205 417.392 377.546 384.924 417.17C374.216 430.237 363.529 443.77 354.387 458C351.132 463.065 349.633 469.06 346.201 474C336.699 487.675 327.286 500.644 320.529 516C317.872 522.036 317.535 528.847 315.097 535C307.42 554.376 300.602 577.127 303.243 598.714C305.193 614.654 310.504 629.403 316.387 644C318.454 649.128 318.422 654.859 320.478 660C326.927 676.124 337.732 692.042 349.325 704.911C378.673 737.487 415.408 762.025 446.91 792.166C455.113 800.014 464.349 806.33 472.91 813.804C487.692 826.707 506.541 850.475 529.174 844.128C548.556 838.693 565.036 818.375 579.17 805.212C588.825 796.22 601.008 789.207 611 780.17C651.898 743.182 700.348 708.626 714.1 652C716.984 640.128 716 627.123 716 615C716 604.007 717.275 590.618 714.211 580C712.961 575.671 709.928 572.234 708.479 568C703.37 553.067 701.141 538.393 693.723 524.015C688.695 514.269 680.599 505.892 675.529 496C659.453 464.64 634.102 437.472 612.609 409.961C603.96 398.891 596.826 382.745 581 381.76C565.16 380.774 552.407 390.848 542.185 401.961C537.279 407.296 532.601 415.567 535.664 423C542.771 440.249 558.393 452.53 569.471 467C576.124 475.69 581.584 485.274 588.364 494C608.487 519.895 626.705 545.682 639.133 576C644.358 588.748 649.904 601.573 648.911 616C648.074 628.145 643.856 636.237 639.04 647C635.804 654.233 632.94 661.669 627.957 667.96C622.853 674.403 616.246 679.383 611.123 686C608.054 689.963 606.354 695.157 602.671 698.606C596.594 704.297 587.62 707.907 581 713.579C567.671 725 553.596 733.924 540 744.8C534.427 749.258 525.595 758.054 518 758.378C509.79 758.729 500.479 745.039 495 740.105C476.177 723.153 455.154 708.091 436.907 690.17C420.998 674.546 397.871 660.814 387.919 640C372.26 607.25 371.853 567.835 388.27 535C395.146 521.248 406.048 510.774 414.301 498C447.941 445.933 492.624 399.277 538.039 357.129C561.544 335.316 589.098 314.141 609.061 288.83C623.883 270.038 610.359 260.498 600.269 244C596.956 238.582 586.194 225.392 578.714 227.863z"/><path style="fill:#e2302f;stroke:none" d="M423 228L424 229L423 228M595 228L596 229L595 228M421 230L422 231L421 230z"/><path style="fill:#cc514f;stroke:none" d="M415 232L416 233L415 232z"/><path style="fill:#edb1ac;stroke:none" d="M578 235.667C569.089 238.142 560.924 248.292 554 254.08C532.356 272.174 513.189 293.323 493 312.985C457.259 347.793 420.32 381.607 388.326 420C373.632 437.632 362.058 457.165 349.366 476C324.436 512.995 302.831 558.927 309.428 605C314.377 639.564 329.493 675.31 352.529 701.826C360.085 710.525 370.489 717.625 378.907 725.576C403.042 748.373 428.157 769.992 453 792.166C468.187 805.721 485.221 822.134 503 832.139C510.099 836.134 516.37 841.448 525 839.471C536.621 836.808 545.188 828.732 554 821.464C570.073 808.206 585.693 794.484 602 781.513C632.975 756.876 667.915 729.426 689.892 696C736.042 625.807 703.548 539.797 659.29 478C643.107 455.403 624.084 434.871 608.519 412C602.455 403.089 592.904 386.355 581.039 385.239C563.938 383.631 536.098 406.964 543.352 425C549.247 439.659 563.194 450.517 572.485 463C597.662 496.824 626.224 531.316 641.562 571C646.656 584.177 653.789 594.845 653.982 610C654.186 626.11 647.942 639.101 640.992 653C637.761 659.462 635.607 665.299 630.916 671C622.672 681.019 614.41 693.012 604.907 701.787C598.878 707.353 591.292 711.572 585 717C570.155 729.806 554.133 740.155 539 752.536C534.194 756.467 524.564 764.841 518 764.508C510.293 764.117 501.32 752.981 496 748.17C479.475 733.225 462.361 717.523 444.985 703.745C424.576 687.562 401.206 668.033 386.965 646C363.227 609.274 367.916 562.994 387.326 526C393.49 514.252 403.289 504.642 411.076 494C438.491 456.536 466.674 419.799 500.17 387.17C534.796 353.439 574.197 322.717 605.722 285.911C617.545 272.107 604.546 257.715 596.255 247C592.279 241.863 585.438 233.602 578 235.667z"/><path style="fill:#e2302f;stroke:none" d="M553 241L552 243L553 241M413 243L414 244L413 243M526 243L524 248L525 248L526 243z"/><path style="fill:#cc514f;stroke:none" d="M529 243L530 244L529 243z"/><path style="fill:#fcf1ee;stroke:none" d="M578 244.809C570.744 246.718 564.87 253.283 559 257.576C549.089 264.824 541.832 274.53 533 282.961C528.571 287.188 522.658 289.903 518.529 294.329C512.966 300.292 509.368 307.054 503 312.576C475.055 336.806 447.807 362.601 422.213 389.184C416.374 395.249 412.43 403.547 406.715 409.999C381.104 438.908 358.027 468.338 340.395 503C335.925 511.788 329.609 519.802 325.93 529C317.186 550.858 311.95 581.551 315.3 605C317.072 617.403 319.967 634.552 324.966 646C330.553 658.792 339.838 669.619 347.653 681C351.378 686.425 353.184 693.973 357.419 698.79C363.081 705.232 371.697 710.01 378 716.039C403.618 740.545 430.072 764.042 457 787.424C470.695 799.316 485.116 810.315 499 822.13C505.519 827.678 514.927 834.294 524 832.485C537.734 829.745 541.99 821.883 552 813.3C565.518 801.709 579.975 790.499 594 779.511C630.752 750.716 668.309 720.401 691.312 679C693.818 674.491 697.974 670.815 699.852 666C702.522 659.153 702.07 650.265 703.286 643C713.465 582.181 686.803 523.209 649.669 476C632.176 453.761 617.29 428.828 597.3 408.576C592.445 403.656 586.605 391.388 579 390.774C575.067 390.456 571.026 393.94 568 396.026C559.832 401.655 543.194 411.99 549.179 424C559.646 445.004 581.081 463.695 595.482 482C615.723 507.728 632.702 536.155 645.877 566C647.929 570.65 651.56 574.324 653.521 579C663.01 601.63 662.81 624.768 651.623 647C644.521 661.113 636.465 673.975 626.13 686C613.024 701.25 598.342 715.271 582 727.039C570.365 735.418 557.659 743.418 547 753.089C539.413 759.973 529.195 770.424 518 769.855C509.386 769.417 499.283 760.201 493 754.866C480.379 744.15 467.144 733.222 455.001 721.91C450.475 717.693 447.587 711.617 442.815 707.839C414.265 685.235 387.086 663.287 372.043 629C349.943 578.624 376.659 524.995 408.678 486C426.445 464.363 441.658 440.844 460.439 420.089C494.451 382.504 532.706 348.783 569.79 314.61C575.734 309.133 579.848 301.736 586 296.17C591.677 291.033 601.55 285.846 603.467 277.999C606.379 266.076 599.276 259.926 591.83 252.011C588.4 248.364 583.514 243.358 578 244.809z"/><path style="fill:#e2302f;stroke:none" d="M522 246L523 247L522 246M411 248L412 249L411 248M522 248L520 251L524 251L522 248z"/><path style="fill:#cc514f;stroke:none" d="M522 249L523 250L522 249M527 249L528 250L527 249M529 250L530 251L529 250M527 251L528 252L527 251M529 252L530 253L529 252z"/><path style="fill:#e2302f;stroke:none" d="M515 253L516 254L515 253z"/><path style="fill:#cc514f;stroke:none" d="M521 253L522 254L521 253M526 254L527 255L526 254M529 254L530 255L529 254z"/><path style="fill:#e2302f;stroke:none" d="M531 260L532 260L534 258L531 260M395 262L396 263L395 262M499 266L500 267L499 266M497 267L499 269L497 267z"/><path style="fill:#cc514f;stroke:none" d="M519 268L518 270L519 268z"/><path style="fill:#e2302f;stroke:none" d="M619 268L621 270L621 268L619 268M496 269L498 271L496 269M494 270L493 272L494 270M489 271L490 272L489 271M620 271L621 272L620 271M384 273L385 274L384 273z"/><path style="fill:#cc514f;stroke:none" d="M498 273L499 274L498 273M500 273L501 274L500 273M502 273L503 274L502 273M508 273L509 274L508 273M510 273L511 274L510 273M512 273L513 274L512 273z"/><path style="fill:#e2302f;stroke:none" d="M487 274L486 276L487 274z"/><path style="fill:#cc514f;stroke:none" d="M498 275L499 276L498 275M500 275L501 276L500 275M503 275L504 276L503 275M507 275L508 276L507 275M509 275L510 276L509 275M489 276L490 277L489 276M496 277L497 278L496 277M488 279L489 280L488 279z"/><path style="fill:#e2302f;stroke:none" d="M507 280L503 285L507 280M623 280L624 281L623 280z"/><path style="fill:#cc514f;stroke:none" d="M487 282L488 283L487 282M485 284L486 285L485 284z"/><path style="fill:#e2302f;stroke:none" d="M478 287L481 288L480 291L481 291L481 285L478 287M501 285L502 286L501 285z"/><path style="fill:#cc514f;stroke:none" d="M493 286L494 287L493 286z"/><path style="fill:#e2302f;stroke:none" d="M621 287L622 288L621 287z"/><path style="fill:#cc514f;stroke:none" d="M363 288L364 289L363 288M483 290L483 291L486 291L486 290L483 290M488 290L489 291L488 290M477 291L478 292L477 291z"/><path style="fill:#e2302f;stroke:none" d="M491 291L492 292L491 291M471 292L472 293L471 292z"/><path style="fill:#cc514f;stroke:none" d="M482 292L483 293L482 292M479 293L480 294L479 293z"/><path style="fill:#e2302f;stroke:none" d="M490 293L491 294L490 293z"/><path style="fill:#cc514f;stroke:none" d="M473 294L474 295L473 294M475 294L477 296L475 294z"/><path style="fill:#e2302f;stroke:none" d="M488 295L487 297L488 295z"/><path style="fill:#cc514f;stroke:none" d="M465 296L466 297L465 296M481 296L482 297L481 296M477 297L478 298L477 297M464 298L465 299L464 298M480 298L481 299L480 298M482 298L483 299L482 298z"/><path style="fill:#e2302f;stroke:none" d="M487 298L485 299L485 300L487 298z"/><path style="fill:#cc514f;stroke:none" d="M621 298L622 299L621 298M476 299L477 300L476 299M478 299L479 300L478 299z"/><path style="fill:#e2302f;stroke:none" d="M611 299L610 301L611 299z"/><path style="fill:#cc514f;stroke:none" d="M619 299L618 301L620 301L619 299M464 300L465 301L464 300M462 301L463 302L462 301M475 301L476 302L475 301M645 301L646 304L642 304L642 303L644 303L644 302L639 304L640 306L639 306L629 309L629 311L627 310L626 313L622 313L619 315L616 318L614 320C613.413 325.144 607.021 337.268 602 339L597 351L599 354L596 354L596 355L599 355L598 359L597 359L596 356L595 356L596 359L593 357L591 370L595 371L597 363L598 363L596 370L598 371L602 370L602 371L605 372L604 375L606 376L607 376L607 374L608 374L608 378L611 377L611 380L612 380L611 378L612 378L612 382C617.012 382.348 622.448 384.962 624 390L627 391L625 392L625 393L628 392L626 395C630.736 397.862 633.906 401.502 635 407C638.914 406.86 641.854 411.349 644.333 414C649.365 419.379 661 427.824 661 436C664.039 436 663.482 438.493 663 441C667.267 442.79 668.866 446.268 672.24 449.214C684.523 459.935 698.032 477.683 700 494L698 493L698 499L700 498L700 499L704 508L705 509L707 508C709.216 511.675 713.475 512.845 716.211 516.185C721.572 522.73 722.716 532.823 723 541L725 545L727 544L727 545L728 553C739.41 562.116 737.468 584.746 739.306 597.611C739.918 601.895 740.696 613.078 745 614C743.244 625.895 747.883 634.777 753 645L755 643L761 649L762 649L766 643L768 644L771 635L774 636L778 630L778 629C776.711 626.871 775.76 625 779 625C777.911 621.733 778.347 619.337 781 620C780.017 617.05 779.513 616.378 782 617L781 614C786.471 613.199 788.322 600.598 790.046 596C795.856 580.508 796.484 564.801 797.611 548.472C798.092 541.509 794.588 533.24 798 527L798 526L795 501L795 500L797 500L797 499L794 497L796 492L796 491L793 491L793 490L796 490L796 489L792 481L791 481L792 483L791 483L790 480L789 479L787 480L785 475L781 474L782 477L776 473L776 472L778 472L778 471L776 469L775 462C772.11 462 767.798 451.841 765.667 449C757.965 438.731 756.144 427.575 749.833 417C746.152 410.831 736.691 405.329 737 397C723.409 384.909 714.465 366.059 703.617 351.714C699.273 345.971 694.171 337.055 687 335L684 332L684 329C676.868 329.69 668.259 310.205 662 306C656.694 302.435 648.804 303.803 645 301M724 301L725 302L724 301M473 302L474 303L473 302z"/><path style="fill:#e2302f;stroke:none" d="M484 302L485 303L484 302M607 302L608 303L607 302z"/><path style="fill:#cc514f;stroke:none" d="M615 302L616 303L615 302M617 302L618 303L617 302M471 303L472 304L471 303z"/><path style="fill:#e2302f;stroke:none" d="M647 303L648 304L647 303M649 303L650 304L649 303M653 303L654 304L653 303z"/><path style="fill:#cc514f;stroke:none" d="M468 304L469 305L468 304z"/><path style="fill:#e2302f;stroke:none" d="M478 304L479 305L478 304M651 304L652 305L651 304z"/><path style="fill:#cc514f;stroke:none" d="M464 305L465 306L464 305z"/><path style="fill:#e2302f;stroke:none" d="M476.333 305.667L476.667 306.333L476.333 305.667z"/><path style="fill:#cc514f;stroke:none" d="M466 306L467 307L466 306z"/><path style="fill:#e2302f;stroke:none" d="M637 306L638 307L637 306z"/><path style="fill:#cc514f;stroke:none" d="M723 306L724 307L723 306M463 307L464 308L463 307M468 307L469 308L468 307z"/><path style="fill:#d97875;stroke:none" d="M749 633L750 635L752 635L751 637C768.902 648.409 773.078 626.336 778.305 612C789.352 581.698 799.496 546.116 789.254 514C786.303 504.749 782.919 493.594 778.442 485.039C776.47 481.271 772.714 478.957 770.995 474.996C768.911 470.197 769.316 464.749 767.004 460C759.991 445.594 749.799 434.157 741.107 420.996C717.399 385.099 693.254 349.741 663.83 318.015C659.751 313.616 652.551 307.012 646 307.529C640.728 307.946 637.899 313.227 633.961 316.049C622.294 324.411 604.908 337.147 606.09 353C606.877 363.549 617.177 370.669 623.83 377.999C638.926 394.632 653.88 412.208 667.585 430.089C669.886 433.091 670.368 436.909 672.509 440C684.068 456.685 697.84 471.056 707.688 489C710.842 494.747 711.843 501.384 714.923 507C724.312 524.118 734.624 540.081 740.742 559C742.098 563.193 741.255 567.68 742.236 572C746.641 591.402 749.997 612.981 749 633z"/><path style="fill:#cc514f;stroke:none" d="M465 308L466 309L465 308M467 309L468 310L467 309z"/><path style="fill:#e2302f;stroke:none" d="M474 309L475 310L474 309z"/><path style="fill:#cc514f;stroke:none" d="M607 309L608 310L607 309z"/><path style="fill:#e2302f;stroke:none" d="M632 309L633 310L632 309z"/><path style="fill:#cc514f;stroke:none" d="M469.333 311.667L469.667 312.333L469.333 311.667z"/><path style="fill:#e2302f;stroke:none" d="M473 311L472 313L473 311M627 311L628 312L627 311z"/><path style="fill:#cc514f;stroke:none" d="M467 312L468 313L467 312M465 313L467 315L465 313z"/><path style="fill:#e2302f;stroke:none" d="M449 315L450 318L447 317L446 320L444 319C438.211 326.399 419.267 331.685 422 343L420 349L422 351L424 349L425 349L427 351L427 348L428 350L429 350L429 348L430 348L431 350L432 347L437 348L438 348L439 344L440 344L440 348L445 343L440 343L443 341L442 333L446 334L449 332L452 330L456 320L458 322L461 317L460 320L459 320L459 317L458 317L458 320L457 320L457 317L456 317L455 322L454 322L454 315L449 315z"/><path style="fill:#edb1ac;stroke:none" d="M761 635C767.933 630.504 768.473 621.249 771.232 614C777.871 596.559 783.611 579.65 786.271 561C790.474 531.532 781.452 505.3 769.12 479C752.244 443.013 730.516 410.792 706.782 378.961C696.718 365.464 686.01 353.004 675.328 340C669.317 332.682 665.062 324.59 657 319.093C653.706 316.847 649.237 313.565 645 314.362C641 315.114 637.139 319.167 634 321.594C624.771 328.729 604.233 344.443 611.938 358C618 368.665 629.575 377.032 637.674 386.089C650.841 400.813 663.841 417.47 674.548 434C682.267 445.918 692.285 456.175 700.215 468C710.185 482.866 717.356 499.356 726.139 515C741.223 541.868 746.437 569.339 753.112 599C755.862 611.218 752.171 624.81 761 635z"/><path style="fill:#cc514f;stroke:none" d="M452 315L451 317L452 315z"/><path style="fill:#e2302f;stroke:none" d="M469 315L470 316L469 315M466 317L467 318L466 317z"/><path style="fill:#cc514f;stroke:none" d="M447 318L448 319L447 318M450 318L452 320L452 321L450 323L453 321L453 320L450 318z"/><path style="fill:#e2302f;stroke:none" d="M463 318L464 319L463 318M619 318L620 319L619 318z"/><path style="fill:#cc514f;stroke:none" d="M447 320L448 321L447 320M449 320L450 321L449 320M453 322L452 325L449 325L449 329L450 329L453 322z"/><path style="fill:#e2302f;stroke:none" d="M615 322L616 323L615 322z"/><path style="fill:#fcf1ee;stroke:none" d="M762 608C769.167 603.509 772.587 592.831 774.629 585C779.687 565.595 781.133 545.896 778.424 526C773.832 492.283 755.826 463.114 737.757 435C734.792 430.387 734.129 424.623 731.005 420.184C718.758 402.785 705.281 385.411 691.439 369C680.073 355.524 669.661 334.967 654.911 325.144C642.453 316.849 623.252 336.005 618.859 347C615.497 355.413 624.89 362.356 629.536 368L670.672 418C685.189 435.688 697.005 454.803 708.994 474C718.306 488.912 729.095 503.725 736.442 520C738.849 525.331 738.301 531.572 740.637 537C750.175 559.159 761.107 582.933 762 608z"/><path style="fill:#cc514f;stroke:none" d="M439 325L440 326L439 325z"/><path style="fill:#e2302f;stroke:none" d="M450 325L451 326L450 325z"/><path style="fill:#cc514f;stroke:none" d="M437 326L438 327L437 326M447 329L448 330L447 329z"/><path style="fill:#e2302f;stroke:none" d="M683 330L684 331L683 330z"/><path style="fill:#cc514f;stroke:none" d="M431 331L432 332L431 331M441 331L442 332L441 331M443.333 331.667L443.667 332.333L443.333 331.667M445.333 331.667L445.667 332.333L445.333 331.667z"/><path style="fill:#e2302f;stroke:none" d="M450 331L451 332L450 331M452 332L453 333L452 332z"/><path style="fill:#cc514f;stroke:none" d="M440 333L440 338L438 337L438 340L439 341L442 341L440 333z"/><path style="fill:#e2302f;stroke:none" d="M450 333L451 334L450 333M686 333L687 334L686 333M440 335L441 336L440 335M444 335L445 336L444 335M689 336L692 339L689 336M443 337L444 338L443 337M439 339L440 340L439 339z"/><path style="fill:#cc514f;stroke:none" d="M567 341L568 342L567 341M436 342L437 343L436 342M314 343L315 344L314 343M434 343L433 347L434 347L434 343M438 343L439 344L438 343M308 344L309 345L308 344M436 344L437 345L436 344M442 344L441 346L442 344M430 345L428 348L432 347L432 346L430 345M306 346L307 347L306 346M421 346L422 347L421 346z"/><path style="fill:#e2302f;stroke:none" d="M430 346L431 347L430 346z"/><path style="fill:#cc514f;stroke:none" d="M423 348L424 349L423 348M425 348L426 349L425 348z"/><path style="fill:#e2302f;stroke:none" d="M305 349L305 350L308 350L308 349L305 349M309 349L310 350L309 349M600 350L601 351L600 350M701 350L702 351L701 350M307 352L308 353L307 352M424 352L425 353L424 352M599 352L600 353L599 352M422 353L423 354L422 353z"/><path style="fill:#cc514f;stroke:none" d="M304 354L303 356L304 354z"/><path style="fill:#e2302f;stroke:none" d="M307 354L308 355L307 354M409 357L410 360L407 358L405 361L405 365L408 367L414 365L413 368L414 368L415 355L409 357M600.333 355.667L600.667 356.333L600.333 355.667M306 356L307 357L306 356z"/><path style="fill:#cc514f;stroke:none" d="M302 357L303 358L302 357M410 357L411 360L408 360L407 364L411 361L412 364L408 365L408 366C411.682 365.016 412.229 363.525 411 360L414 365L415 365L415 358L410 357z"/><path style="fill:#e2302f;stroke:none" d="M412.667 358.333L413.333 358.667L412.667 358.333M593 358L593 369L594 369L600 361L600 360L593 358M600 358L601 359L600 358z"/><path style="fill:#cc514f;stroke:none" d="M594 360L594 363L597 360L594 360M406 361L407 362L406 361M589 362L590 363L589 362z"/><path style="fill:#e2302f;stroke:none" d="M598 362L599 363L598 362M600 363L601 364L600 363z"/><path style="fill:#cc514f;stroke:none" d="M587 364L588 365L587 364M594 364L595 365L594 364z"/><path style="fill:#e2302f;stroke:none" d="M405 366L402 369L403 371L400 370L400 373C393.212 370.737 385.986 384.397 389 385L389 386L385 390L382 392L383 392L383 390L384 390L380 392L382 395L382 396L379 396L379 397L382 398L379 398L382 404L383 404L393 389L394 389L395 391L400 389L399 386L404 384L407 379L406 376L408 377C407.017 374.05 406.513 373.378 409 374L408 370L405 370L405 366z"/><path style="fill:#cc514f;stroke:none" d="M587 366L588 367L587 366z"/><path style="fill:#e2302f;stroke:none" d="M597 367L597 368L603 367L597 367M403 367L404 368L403 367M415 367L416 368L415 367M298 368L299 369L298 368M408 368L409 369L408 368M411 368L412 369L411 368z"/><path style="fill:#cc514f;stroke:none" d="M587 368L588 369L587 368M589 368L590 369L589 368M404 370L402 375L403 375L404 371L405 371L404 377L405 377L404 370z"/><path style="fill:#e2302f;stroke:none" d="M410 370L411 371L410 370M413 370L414 371L413 370z"/><path style="fill:#cc514f;stroke:none" d="M587 370L588 371L587 370M589 370L590 371L589 370M600 370L601 371L600 370z"/><path style="fill:#e2302f;stroke:none" d="M296 371L297 372L296 371z"/><path style="fill:#cc514f;stroke:none" d="M400 371L399 375L400 371M596 371L598 373L596 371M589 372L590 373L589 372M591 372L592 373L591 372M602 372L603 373L602 372z"/><path style="fill:#e2302f;stroke:none" d="M605 372L607 374L605 372z"/><path style="fill:#cc514f;stroke:none" d="M397 373L395 376L397 373M595 373L596 374L595 373M602 375L603 376L602 375z"/><path style="fill:#e2302f;stroke:none" d="M609 375L610 376L609 375z"/><path style="fill:#cc514f;stroke:none" d="M393 376L394 377L393 376M397 376L398 377L397 376M399 376L400 377L399 376M402 376L401 378L402 376M604 376L605 377L604 376z"/><path style="fill:#e2302f;stroke:none" d="M528 377L529 378L528 377z"/><path style="fill:#cc514f;stroke:none" d="M606 377L607 378L606 377M392 378L393 379L392 378M403 378L402 380L403 378M604 378L606 380L604 378M601 379L603 381L601 379M608 379L609 380L608 379M400 380L401 381L400 380z"/><path style="fill:#e2302f;stroke:none" d="M405 380L406 381L405 380M614 380L616 382L614 380z"/><path style="fill:#cc514f;stroke:none" d="M402 381L403 382L402 381z"/><path style="fill:#e2302f;stroke:none" d="M557.333 381.667L557.667 382.333L557.333 381.667M559 381L560 382L559 381z"/><path style="fill:#cc514f;stroke:none" d="M400 382L401 383L400 382M524 382L525 383L524 382z"/><path style="fill:#e2302f;stroke:none" d="M597 382L597 383L601 387L602 387L602 383L597 382z"/><path style="fill:#cc514f;stroke:none" d="M390 383L391 384L390 383M398 383L399 384L398 383M613 383L614 384L613 383M400 384L401 385L400 384M604 384L605 385L604 384M617 384L618 385L617 384M390 385L391 386L390 385M398 385L399 386L398 385M521 385L522 386L521 385M392 386L393 387L392 386M387 387L386 389L387 387M394 387L395 388L394 387M397 387L396 389L397 387z"/><path style="fill:#e2302f;stroke:none" d="M603 388L605 390L603 388z"/><path style="fill:#cc514f;stroke:none" d="M386 390L388 392L386 390M390 390L392 392L390 390M607 390L608 391L607 390M515 391L516 392L515 391z"/><path style="fill:#e2302f;stroke:none" d="M604 391L605 392L604 391z"/><path style="fill:#cc514f;stroke:none" d="M385 392L381 400L385 392M389.333 392.667L389.667 393.333L389.333 392.667M387 393L388 394L387 393z"/><path style="fill:#e2302f;stroke:none" d="M508 393L509 394L508 393z"/><path style="fill:#cc514f;stroke:none" d="M512 393L511 395L512 393M382 394L383 395L382 394M624 394L625 395L624 394z"/><path style="fill:#e2302f;stroke:none" d="M628 394L630 396L628 394M387 396L388 397L387 396z"/><path style="fill:#cc514f;stroke:none" d="M621 397L622 398L621 397z"/><path style="fill:#e2302f;stroke:none" d="M624 397L625 398L624 397M632 398L633 399L632 398M624 399L621 405L621 408L626 407L624 399M376 400L376 405L375 405L374 401L372 401L361 418L359 424L357 424L351 436L349 436L350 438L345 442L346 445C342.816 445.524 341.371 446.737 341 450L337 452L336 452L334 450L333 454L332 454L331 452L329 454L330 456C324.955 459.148 320.956 470.21 321 476L317 484C306.188 487.579 304.128 516.481 303 526L305 526L307 530L306 520L309 519L309 514L310 514L310 516L311 516L311 513L312 513L312 515L313 515L313 510L315 510L314 508C321.724 506.356 326.714 493.29 327 486L328 485L330 486L329 483L333 483L346 459L346 458L344 456L347 455L347 454L344 455L347 451L345 452L345 451L349 450L348 447L348 446L352 447C352 443.906 353.754 444.913 356 446L354 443L359 441L360 435L363 434L362 432L366 432L370 423L377 417C376.507 414.536 376.409 412.352 379 413L378 410L381 410L381 409L379 410L379 409L379 406L380 405L382 406L379 400L376 400M384 400L385 401L384 400z"/><path style="fill:#cc514f;stroke:none" d="M621 400L622 401L621 400M378 401L380 404L378 401z"/><path style="fill:#e2302f;stroke:none" d="M505 402L503 409L504 409L505 402z"/><path style="fill:#cc514f;stroke:none" d="M632 402L633 403L632 402M372 403L373 404L372 403z"/><path style="fill:#e2302f;stroke:none" d="M616 403L617 404L616 403z"/><path style="fill:#cc514f;stroke:none" d="M628 403L629 404L628 403M376 405L376 406L379 406L376 405M624 404L623 406L624 404M633 404L634 405L633 404M371 405L373 407L371 405M378 407L379 408L378 407z"/><path style="fill:#e2302f;stroke:none" d="M381 407L382 408L381 407z"/><path style="fill:#cc514f;stroke:none" d="M370 408L367 411L367 412L370 408z"/><path style="fill:#e2302f;stroke:none" d="M622 409L623 410L622 409z"/><path style="fill:#cc514f;stroke:none" d="M625 409L626 410L625 409z"/><path style="fill:#e2302f;stroke:none" d="M501 413L504 410L501 413z"/><path style="fill:#cc514f;stroke:none" d="M365 411L362 416L365 411z"/><path style="fill:#e2302f;stroke:none" d="M492 412L492 416L493 416L492 413L493 413L494 416L496 416L497 416L496 413L492 412z"/><path style="fill:#cc514f;stroke:none" d="M366 413L367 414L366 413z"/><path style="fill:#e2302f;stroke:none" d="M489 413L490 414L489 413z"/><path style="fill:#cc514f;stroke:none" d="M499 415L500 416L499 415M501 415L502 416L501 415M375 416L376 417L375 416M498 417L499 418L498 417M500 417L501 418L500 417M503 417L504 418L503 417M359 420L360 421L359 420M371 421L372 422L371 421M369 424L370 425L369 424M359 425L358 427L359 425z"/><path style="fill:#e2302f;stroke:none" d="M533 425L534 426L533 425z"/><path style="fill:#cc514f;stroke:none" d="M368 426L369 427L368 426z"/><path style="fill:#e2302f;stroke:none" d="M631 426L632 427L631 426M533 427L534 428L533 427z"/><path style="fill:#cc514f;stroke:none" d="M367 428L368 429L367 428M365 429L366 430L365 429M361 430L362 431L361 430M363 430L364 431L363 430z"/><path style="fill:#e2302f;stroke:none" d="M635 431L636 432L635 431z"/><path style="fill:#cc514f;stroke:none" d="M360 432L361 433L360 432M353 433L352 435L353 433M351 436L352 437L351 436M359 436L357 439L359 436M348 439L349 440L348 439M350 439L351 440L350 439M355 441L356 442L355 441M348 442L349 443L348 442M351 443L352 444L351 443M665 443L666 444L665 443M347.333 444.667L347.667 445.333L347.333 444.667M349 444L350 445L349 444M343 448L344 448L345 446L348 448L348 447L345 445L343 448z"/><path style="fill:#e2302f;stroke:none" d="M353 446L354 447L353 446z"/><path style="fill:#cc514f;stroke:none" d="M669 448L670 449L669 448M342 449L344 453L345 453L345 449L342 449z"/><path style="fill:#e2302f;stroke:none" d="M549 449L550 450L549 449z"/><path style="fill:#cc514f;stroke:none" d="M660 450L661 451L660 450M338.667 451.333L339.333 451.667L338.667 451.333M341 451L342 452L341 451M334 452L335 453L334 452M338 453L339 454L338 453M340 453L341 454L340 453M333 454L335 456L333 454M342 454L343 455L342 454z"/><path style="fill:#e2302f;stroke:none" d="M245 455L246 456L245 455z"/><path style="fill:#cc514f;stroke:none" d="M344 458L345 459L344 458M553 458L554 459L553 458M556 462L557 463L556 462z"/><path style="fill:#e2302f;stroke:none" d="M342 468L343 469L342 468M237 470L236 472L237 470M235 474L236 475L235 474M237 474L238 475L237 474M234 479L235 479L236 477L234 479M785 478L786 479L785 478M672 480L673 481L672 480M786 480L788 483L786 480M788 480L789 481L788 480M232 483L231 485L232 483M789 483L790 484L789 483M787 484L788 485L787 484M792 485L793 486L792 485M231 486L232 487L231 486M793 487L794 488L793 487z"/><path style="fill:#cc514f;stroke:none" d="M325 488L326 489L325 488z"/><path style="fill:#e2302f;stroke:none" d="M700 491L701 492L700 491M681 492L684 495L681 492M792 493L793 494L792 493M794 494L795 495L794 494M699 495L700 496L699 495z"/><path style="fill:#cc514f;stroke:none" d="M543 497L544 498L543 497z"/><path style="fill:#e2302f;stroke:none" d="M700 497L701 498L700 497M793 498L794 499L793 498z"/><path style="fill:#cc514f;stroke:none" d="M541 500L542 501L541 500M697 500L698 501L697 500z"/><path style="fill:#e2302f;stroke:none" d="M700 500L703 502L703 501L700 500M703 503L704 504L703 503z"/><path style="fill:#cc514f;stroke:none" d="M696 504L697 505L696 504z"/><path style="fill:#e2302f;stroke:none" d="M590 505L591 506L590 505M705 507L706 508L705 507z"/><path style="fill:#cc514f;stroke:none" d="M307 509L306 511L307 509z"/><path style="fill:#e2302f;stroke:none" d="M594 510L595 511L594 510z"/><path style="fill:#cc514f;stroke:none" d="M306 512L305 514L306 512M307 514L307 518L305 517L305 520L307 514M304 515L305 516L304 515z"/><path style="fill:#e2302f;stroke:none" d="M300 516L296 521L300 516M310 517L311 518L310 517z"/><path style="fill:#cc514f;stroke:none" d="M303 519L304 520L303 519M304 521L305 525L306 525L307 524L307 523L304 521z"/><path style="fill:#e2302f;stroke:none" d="M308 521L309 522L308 521z"/><path style="fill:#cc514f;stroke:none" d="M298 522L299 523L298 522M296 523L297 524L296 523M300 523L301 524L300 523z"/><path style="fill:#e2302f;stroke:none" d="M305 523L306 524L305 523z"/><path style="fill:#cc514f;stroke:none" d="M405 523L406 524L405 523M295 526L296 527L295 526z"/><path style="fill:#e2302f;stroke:none" d="M796 526L797 527L796 526z"/><path style="fill:#cc514f;stroke:none" d="M305 527L306 528L305 527z"/><path style="fill:#e2302f;stroke:none" d="M303 529L304 530L303 529M303 531L304 532L303 531M227 533L228 534L227 533M605 533L606 534L605 533M607 535L608 536L607 535M607 537L613 548L607 537M392 539L393 540L392 539M725 540L726 541L725 540M391 541L392 542L391 541M726 542L727 543L726 542M727 546L728 547L727 546M613.667 549.333L614.333 549.667L613.667 549.333z"/><path style="fill:#cc514f;stroke:none" d="M607 550L608 551L607 550z"/><path style="fill:#e2302f;stroke:none" d="M611 550L610 552L611 550z"/><path style="fill:#cc514f;stroke:none" d="M610 554L612 556L610 554z"/><path style="fill:#e2302f;stroke:none" d="M618 554L622 558L621 554L618 554z"/><path style="fill:#cc514f;stroke:none" d="M614 558L615 559L614 558M621 560L622 561L621 560z"/><path style="fill:#e2302f;stroke:none" d="M716 563L717 564L716 563M627 564L628 565L627 564M628 566L629 567L628 566M626 567L627 568L626 567M299 570L300 571L299 570z"/><path style="fill:#cc514f;stroke:none" d="M625 570L626 571L625 570z"/><path style="fill:#e2302f;stroke:none" d="M718 570L717 573L720 571L718 570M298 572L299 573L298 572z"/><path style="fill:#cc514f;stroke:none" d="M721 573L722 574L721 573z"/><path style="fill:#e2302f;stroke:none" d="M719 575L720 576L719 575M297 577L298 578L297 577M719 577L720 578L719 577M233 579L234 580L233 579M297 580L298 581L297 580M284 582L285 583L284 582z"/><path style="fill:#cc514f;stroke:none" d="M295 582L296 583L295 582z"/><path style="fill:#e2302f;stroke:none" d="M284 584L285 585L284 584z"/><path style="fill:#cc514f;stroke:none" d="M294 584L295 585L294 584z"/><path style="fill:#e2302f;stroke:none" d="M284 587L285 588L284 587M722 591L723 592L722 591z"/><path style="fill:#cc514f;stroke:none" d="M381 598L382 599L381 598M725 598L726 599L725 598M725 600L726 601L725 600z"/><path style="fill:#e2302f;stroke:none" d="M381 603L382 604L381 603M723 603L724 604L723 603M281 604L282 605L281 604M384 604L385 605L384 604z"/><path style="fill:#edb1ac;stroke:none" d="M763 605L764 606L763 605z"/><path style="fill:#fcf1ee;stroke:none" d="M764 608L765 609L764 608z"/><path style="fill:#e2302f;stroke:none" d="M724 609L725 610L724 609M725 612L728 623L728 624L726 627L730 628L733 610L725 612z"/><path style="fill:#cc514f;stroke:none" d="M728 611L726 618L728 625L729 625L732 612L728 611z"/><path style="fill:#e2302f;stroke:none" d="M728 612L729 615L730 615L731 612L728 612M729 616L730 617L729 616z"/><path style="fill:#cc514f;stroke:none" d="M734 616L735 617L734 616z"/><path style="fill:#e2302f;stroke:none" d="M729 618L729 622L730 622L731 618L729 618z"/><path style="fill:#edb1ac;stroke:none" d="M266 619L267 620L266 619M265 621L266 622L265 621z"/><path style="fill:#cc514f;stroke:none" d="M733 623L734 624L733 623M732 625L733 626L732 625M777 626L778 627L777 626M732 627L733 628L732 627z"/><path style="fill:#e2302f;stroke:none" d="M253 628L254 629L253 628M278 628L279 629L278 628z"/><path style="fill:#cc514f;stroke:none" d="M636 628L637 629L636 628M274 629L275 630L274 629z"/><path style="fill:#e2302f;stroke:none" d="M776 629L777 630L776 629M278 630L279 631L278 630z"/><path style="fill:#cc514f;stroke:none" d="M253 631L254 632L253 631z"/><path style="fill:#e2302f;stroke:none" d="M276 631L277 632L276 631z"/><path style="fill:#cc514f;stroke:none" d="M729 631L730 632L729 631M268 632L269 633L268 632z"/><path style="fill:#d97875;stroke:none" d="M265 633L266 634L265 633z"/><path style="fill:#e2302f;stroke:none" d="M277 633L274 634L274 635L276 636L277 633M257 635L257 636L261 635L257 635M271 634L272 635L271 634z"/><path style="fill:#d97875;stroke:none" d="M275 634L276 635L275 634M274 635L275 636L274 635z"/><path style="fill:#cc514f;stroke:none" d="M279 635L280 636L279 635z"/><path style="fill:#e2302f;stroke:none" d="M725 635L726 636L725 635M271 636L272 637L271 636M273 636L273 639L274 639L273 636z"/><path style="fill:#cc514f;stroke:none" d="M263 637L264 638L263 637z"/><path style="fill:#e2302f;stroke:none" d="M269 637L270 638L269 637z"/><path style="fill:#d97875;stroke:none" d="M273 637L274 638L273 637z"/><path style="fill:#cc514f;stroke:none" d="M278 637L279 638L278 637M256 638L257 639L256 638M261 638L263 640L261 638z"/><path style="fill:#e2302f;stroke:none" d="M271 638L272 639L271 638M275 638L276 639L275 638M395 638L396 639L395 638z"/><path style="fill:#cc514f;stroke:none" d="M402 639L404 641L402 639z"/><path style="fill:#e2302f;stroke:none" d="M724 639L725 640L724 639z"/><path style="fill:#cc514f;stroke:none" d="M260 640L261 641L260 640z"/><path style="fill:#e2302f;stroke:none" d="M399 640L401 642L399 640z"/><path style="fill:#cc514f;stroke:none" d="M407 640L408 641L407 640M749 640L750 641L749 640M274 641L275 642L274 641M405 641L406 642L405 641z"/><path style="fill:#e2302f;stroke:none" d="M752 641L754 643L752 641M755 642L756 643L755 642M403 643L404 644L403 643M759 643L756 644L761 648L762 648L766 646L763 643L763 646L760 646L759 645L759 643z"/><path style="fill:#d97875;stroke:none" d="M760 643L761 644L760 643z"/><path style="fill:#e2302f;stroke:none" d="M761 643L762 644L761 643z"/><path style="fill:#d97875;stroke:none" d="M762 643L763 644L762 643z"/><path style="fill:#e2302f;stroke:none" d="M405 644L406 645L405 644M407 644L408 645L407 644M409 644L410 645L409 644z"/><path style="fill:#cc514f;stroke:none" d="M759 644L759 645L764 645L759 644M758 645L759 646L758 645M764 645L765 646L764 645z"/><path style="fill:#e2302f;stroke:none" d="M311 646L312 647L311 646M409 646L410 647L409 646z"/><path style="fill:#cc514f;stroke:none" d="M754 646L755 647L754 646M761 646L762 647L761 646M756 648L758 650L756 648M759 649L760 650L759 649M763 649L764 650L763 649M761 650L762 651L761 650z"/><path style="fill:#e2302f;stroke:none" d="M407 651L408 652L407 651M410 651L409 654L410 651z"/><path style="fill:#cc514f;stroke:none" d="M759 651L760 652L759 651z"/><path style="fill:#e2302f;stroke:none" d="M631 652L632 653L631 652M625 661L624 663L625 661M623 664L624 665L623 664z"/><path style="fill:#cc514f;stroke:none" d="M601 670L602 671L601 670M600 674L601 675L600 674M315 677L316 678L315 677z"/><path style="fill:#e2302f;stroke:none" d="M319 679L320 680L319 679M433 680L434 681L433 680M437 683L438 684L437 683M600 691L601 692L600 691z"/><path style="fill:#cc514f;stroke:none" d="M326 692L327 693L326 692z"/><path style="fill:#e2302f;stroke:none" d="M697 709L698 710L697 709M350 716L351 717L350 716z"/><path style="fill:#cc514f;stroke:none" d="M695 716L696 717L695 716M693 718L694 719L693 718M691 720L692 721L691 720z"/><path style="fill:#e2302f;stroke:none" d="M355 722L356 723L355 722M681 725L682 726L681 725M356 728L357 729L356 728z"/><path style="fill:#cc514f;stroke:none" d="M518 729L519 730L518 729z"/><path style="fill:#e2302f;stroke:none" d="M493 730L494 731L493 730z"/><path style="fill:#cc514f;stroke:none" d="M516 730L517 731L516 730M520 730L521 731L520 730M355 731L356 732L355 731z"/><path style="fill:#e2302f;stroke:none" d="M358 731L359 732L358 731M495.333 732.667L495.667 733.333L495.333 732.667z"/><path style="fill:#cc514f;stroke:none" d="M515 732L516 733L515 732M522 732L523 733L522 732M358 734L360 736L358 734z"/><path style="fill:#e2302f;stroke:none" d="M497 734L498 735L497 734M518 734L519 735L518 734M520.333 734.667L520.667 735.333L520.333 734.667z"/><path style="fill:#cc514f;stroke:none" d="M523 734L525 736L523 734M361 735L362 736L361 735z"/><path style="fill:#e2302f;stroke:none" d="M514 735L513 737L514 735M516 735L517 736L516 735M518 736L519 737L518 736z"/><path style="fill:#cc514f;stroke:none" d="M366 737L367 738L366 737M509 737L510 738L509 737z"/><path style="fill:#e2302f;stroke:none" d="M514 738L520 742L519 739L514 738M516 738L517 739L516 738z"/><path style="fill:#cc514f;stroke:none" d="M508 739L509 740L508 739M510 740L511 741L510 740z"/><path style="fill:#e2302f;stroke:none" d="M516 742L515 744L516 742M521 742L521 743L526 744L526 743L521 742M529 742L530 743L529 742M511 743L512 744L511 743M513 743L514 744L513 743M519 743L521 745L519 743M517 744L518 745L517 744M522 745L523 746L522 745M522 747L523 748L522 747M662 749L663 750L662 749M657 751L658 752L657 751M659 751L658 754L655 752L657 757L662 751L659 751z"/><path style="fill:#cc514f;stroke:none" d="M659 753L658 755L659 753z"/><path style="fill:#e2302f;stroke:none" d="M392 755L393 756L392 755M653 755L653 756L656 756L656 755L653 755M652 757L651 759L652 757z"/><path style="fill:#cc514f;stroke:none" d="M654 759L655 760L654 759M656 759L657 760L656 759M651 761L652 762L651 761M653 761L654 762L653 761M423 788L424 789L423 788z"/><path style="fill:#e2302f;stroke:none" d="M426 788L427 789L426 788z"/><path style="fill:#cc514f;stroke:none" d="M425 792L426 793L425 792z"/><path style="fill:#e2302f;stroke:none" d="M435 794L436 795L435 794z"/><path style="fill:#cc514f;stroke:none" d="M444 802L445 803L444 802M457 812L458 813L457 812z"/><path style="fill:#e2302f;stroke:none" d="M460 812L461 813L460 812z"/><path style="fill:#cc514f;stroke:none" d="M582 812L583 813L582 812z"/><path style="fill:#e2302f;stroke:none" d="M574 817L575 818L574 817M467 819L468 820L467 819z"/><path style="fill:#cc514f;stroke:none" d="M466 822L467 823L466 822z"/><path style="fill:#e2302f;stroke:none" d="M566.333 824.667L566.667 825.333L566.333 824.667M563 826L564 827L563 826M562 829L561 831L562 829M558 830L559 831L558 830M478.667 831.333L479.333 831.667L478.667 831.333M556 832L557 833L556 832M558 832L559 833L558 832M479 833L480 834L479 833M481 833L482 834L481 833M482 836L482 837L485 837L482 836M555 835L556 836L555 835z"/><path style="fill:#cc514f;stroke:none" d="M558 835L559 836L558 835M477 836L478 837L477 836z"/><path style="fill:#e2302f;stroke:none" d="M499 842L499 843L503 843L499 842z"/><path style="fill:#cc514f;stroke:none" d="M501 842L502 843L501 842M505 847L506 848L505 847z"/><path style="fill:#e2302f;stroke:none" d="M514 847L515 848L514 847M542 847L541 849L542 847z"/><path style="fill:#cc514f;stroke:none" d="M513 850L514 851L513 850z"/><path style="fill:#e2302f;stroke:none" d="M535 850L534 851L534 852L535 853L536 853L537 852L537 851L535 850M525 851L526 852L525 851M527 851L527 852L530 852L530 851L527 851M532 851L533 852L532 851z"/><path style="fill:#cc514f;stroke:none" d="M535 851L536 852L535 851M541 851L542 852L541 851M539 854L539 855L542 855L539 854M543 853L544 854L543 853M545 853L546 854L545 853M548 853L549 854L548 853M550 853L551 854L550 853M558 853L559 854L558 853M532 854L533 855L532 854M537 854L538 855L537 854M554 854L551 855L552 859L553 859L554 854M543 855L543 856L548 858L548 855L543 855M549 855L550 860L551 860L549 855M556 855L555 857L556 855M558 855L559 856L558 855M560 855L561 856L560 855M538 856L539 857L538 856M541 856L543 858L541 856M557 857L558 858L557 857M544 858L545 859L544 858M555 858L554 860L555 858M547 859L548 860L547 859M560 859L561 860L560 859M552 860L553 861L552 860M556 860L557 861L556 860M555 863L556 864L555 863z"/></svg>